<mxfile host="app.diagrams.net" agent="Mozilla/5.0 (Windows NT 10.0; Win64; x64) AppleWebKit/537.36 (KHTML, like Gecko) Chrome/133.0.0.0 Safari/537.36" version="26.0.15">
  <diagram name="Page-1" id="fZEyFCUvGAYgXT3QNH51">
    <mxGraphModel grid="0" page="1" gridSize="10" guides="1" tooltips="1" connect="1" arrows="1" fold="1" pageScale="1" pageWidth="827" pageHeight="1169" math="0" shadow="0">
      <root>
        <mxCell id="0" />
        <mxCell id="1" parent="0" />
        <mxCell id="hPzBtnWznBtw2IhNeeDl-1" value="A" style="swimlane;fontStyle=0;childLayout=stackLayout;horizontal=1;startSize=30;horizontalStack=0;resizeParent=1;resizeParentMax=0;resizeLast=0;collapsible=1;marginBottom=0;whiteSpace=wrap;html=1;" vertex="1" parent="1">
          <mxGeometry x="110" y="480" width="140" height="60" as="geometry" />
        </mxCell>
        <mxCell id="hPzBtnWznBtw2IhNeeDl-5" value="C" style="swimlane;fontStyle=0;childLayout=stackLayout;horizontal=1;startSize=30;horizontalStack=0;resizeParent=1;resizeParentMax=0;resizeLast=0;collapsible=1;marginBottom=0;whiteSpace=wrap;html=1;" vertex="1" parent="1">
          <mxGeometry x="610" y="480" width="140" height="60" as="geometry" />
        </mxCell>
        <mxCell id="hPzBtnWznBtw2IhNeeDl-6" value="B" style="swimlane;fontStyle=0;childLayout=stackLayout;horizontal=1;startSize=30;horizontalStack=0;resizeParent=1;resizeParentMax=0;resizeLast=0;collapsible=1;marginBottom=0;whiteSpace=wrap;html=1;" vertex="1" parent="1">
          <mxGeometry x="344" y="630" width="140" height="60" as="geometry" />
        </mxCell>
        <mxCell id="hPzBtnWznBtw2IhNeeDl-8" style="edgeStyle=orthogonalEdgeStyle;rounded=0;orthogonalLoop=1;jettySize=auto;html=1;exitX=1;exitY=0.5;exitDx=0;exitDy=0;entryX=0;entryY=0.5;entryDx=0;entryDy=0;endArrow=none;startFill=0;" edge="1" parent="1" source="hPzBtnWznBtw2IhNeeDl-7" target="hPzBtnWznBtw2IhNeeDl-5">
          <mxGeometry relative="1" as="geometry" />
        </mxCell>
        <mxCell id="hPzBtnWznBtw2IhNeeDl-9" style="edgeStyle=orthogonalEdgeStyle;rounded=0;orthogonalLoop=1;jettySize=auto;html=1;exitX=0.5;exitY=1;exitDx=0;exitDy=0;entryX=0.5;entryY=0;entryDx=0;entryDy=0;endArrow=none;startFill=0;" edge="1" parent="1" source="hPzBtnWznBtw2IhNeeDl-7" target="hPzBtnWznBtw2IhNeeDl-6">
          <mxGeometry relative="1" as="geometry" />
        </mxCell>
        <mxCell id="hPzBtnWznBtw2IhNeeDl-10" style="edgeStyle=orthogonalEdgeStyle;rounded=0;orthogonalLoop=1;jettySize=auto;html=1;exitX=0;exitY=0.5;exitDx=0;exitDy=0;entryX=1;entryY=0.5;entryDx=0;entryDy=0;endArrow=none;startFill=0;" edge="1" parent="1" source="hPzBtnWznBtw2IhNeeDl-7" target="hPzBtnWznBtw2IhNeeDl-1">
          <mxGeometry relative="1" as="geometry" />
        </mxCell>
        <mxCell id="hPzBtnWznBtw2IhNeeDl-7" value="" style="rhombus;whiteSpace=wrap;html=1;" vertex="1" parent="1">
          <mxGeometry x="374" y="470" width="80" height="80" as="geometry" />
        </mxCell>
        <mxCell id="hPzBtnWznBtw2IhNeeDl-11" value="3..*" style="text;html=1;align=center;verticalAlign=middle;resizable=0;points=[];autosize=1;strokeColor=none;fillColor=none;" vertex="1" parent="1">
          <mxGeometry x="560" y="480" width="40" height="30" as="geometry" />
        </mxCell>
        <mxCell id="ZeHFlVslojVZ53ELzPlo-1" value="1..3" style="text;html=1;align=center;verticalAlign=middle;resizable=0;points=[];autosize=1;strokeColor=none;fillColor=none;" vertex="1" parent="1">
          <mxGeometry x="410" y="598" width="40" height="30" as="geometry" />
        </mxCell>
        <mxCell id="ZeHFlVslojVZ53ELzPlo-2" value="(3)" style="text;html=1;align=center;verticalAlign=middle;resizable=0;points=[];autosize=1;strokeColor=none;fillColor=none;" vertex="1" parent="1">
          <mxGeometry x="440" y="598" width="40" height="30" as="geometry" />
        </mxCell>
        <mxCell id="ZeHFlVslojVZ53ELzPlo-3" value="(2)" style="text;html=1;align=center;verticalAlign=middle;resizable=0;points=[];autosize=1;strokeColor=none;fillColor=none;" vertex="1" parent="1">
          <mxGeometry x="550" y="450" width="40" height="30" as="geometry" />
        </mxCell>
        <mxCell id="ZeHFlVslojVZ53ELzPlo-4" value="1.." style="text;html=1;align=center;verticalAlign=middle;resizable=0;points=[];autosize=1;strokeColor=none;fillColor=none;" vertex="1" parent="1">
          <mxGeometry x="260" y="480" width="40" height="30" as="geometry" />
        </mxCell>
        <mxCell id="ZeHFlVslojVZ53ELzPlo-5" value="(1)" style="text;html=1;align=center;verticalAlign=middle;resizable=0;points=[];autosize=1;strokeColor=none;fillColor=none;" vertex="1" parent="1">
          <mxGeometry x="350" y="598" width="40" height="30" as="geometry" />
        </mxCell>
        <mxCell id="ZeHFlVslojVZ53ELzPlo-6" value="(1)" style="text;html=1;align=center;verticalAlign=middle;resizable=0;points=[];autosize=1;strokeColor=none;fillColor=none;" vertex="1" parent="1">
          <mxGeometry x="240" y="448" width="40" height="30" as="geometry" />
        </mxCell>
      </root>
    </mxGraphModel>
  </diagram>
</mxfile>
